<svg width="24" height="24" viewBox="0 0 24 24" fill="none" xmlns="http://www.w3.org/2000/svg">
<path d="M8.06251 22.6878C6.21798 22.0836 4.48126 20.6975 3.76079 18.8567C2.90204 16.6625 3.30704 14.263 4.03173 12.0945C4.09595 12.0805 4.08189 12.1433 4.10064 12.1878C4.31485 12.7011 4.75126 14.3698 5.04376 14.6675C5.28892 14.9169 5.69063 14.848 5.92923 14.6253C6.72048 13.8861 5.66579 11.5367 5.44079 10.6142C5.07892 9.1311 5.2786 7.98641 6.14907 6.73578C6.3197 6.4911 7.25204 5.41157 7.47704 5.345C7.56423 5.31922 7.53985 5.35953 7.54642 5.41391C7.61298 5.95297 7.67157 6.53891 7.88438 7.04563C8.2486 7.91516 8.93954 7.08125 9.30517 6.6575C10.3491 5.44672 10.9369 3.45172 10.6195 1.87297C10.5624 1.58891 10.3177 1.10329 10.3238 0.856723C10.3327 0.483598 11.1309 1.04797 11.2645 1.13375C13.2108 2.38907 14.7478 4.69578 15.0408 7.01375C15.1036 7.51203 14.9658 8.99844 15.6384 9.04485C16.1902 9.08282 16.3978 8.44907 16.4292 8.01594C17.9494 9.41141 19.1484 11.1247 19.9434 13.033C20.5528 14.4959 20.9208 15.9767 20.5275 17.5513C20.0208 19.5805 18.2667 21.305 16.4995 22.3123C18.082 18.5173 14.348 15.8014 13.6772 12.3613C13.403 11.8311 12.6427 12.8361 12.4495 13.0831C11.4089 14.4139 11.1108 15.7325 10.8802 17.3731C10.8478 17.6042 10.8324 18.4344 10.7095 18.5619C10.4372 18.845 10.0092 18.2286 9.84423 18.0223C9.36657 17.4242 9.2686 16.9606 8.9311 16.3573C8.5847 15.7381 8.21673 16.5045 8.0372 16.8275C7.14095 18.4391 6.90845 20.4538 7.73907 22.1431C7.78829 22.243 8.00298 22.6269 8.06157 22.6878H8.06251Z" fill="#F85353"/>
<path d="M16.5 22.3123C16.4433 22.4478 16.1119 22.5823 15.9689 22.6484C14.1942 23.4687 10.8586 23.4851 8.97985 23.0117C8.78157 22.962 8.17969 22.8082 8.0625 22.6868C8.00391 22.6259 7.78922 22.242 7.74 22.1421C6.90938 20.4528 7.14188 18.4381 8.03813 16.8265C8.21766 16.5036 8.5861 15.7371 8.93204 16.3564C9.26954 16.9596 9.36704 17.4237 9.84516 18.0214C10.0102 18.2276 10.4386 18.844 10.7105 18.5609C10.8328 18.4334 10.8483 17.6032 10.8811 17.3721C11.1113 15.7311 11.4098 14.4129 12.4505 13.0821C12.6436 12.8351 13.4039 11.8301 13.6781 12.3603C14.3489 15.8004 18.0825 18.5164 16.5005 22.3114L16.5 22.3123Z" fill="#FED450"/>
</svg>
